<svg viewBox="0 0 1400 1000" xmlns="http://www.w3.org/2000/svg">
  <!-- Стили -->
  <defs>
    <style>
      .container { fill: #f5f5f5; stroke: #333; stroke-width: 2; }
      .component { fill: white; stroke: #333; stroke-width: 2; }
      .ui-comp { fill: #e8f5e9; stroke: #388e3c; }
      .api-comp { fill: #f3e5f5; stroke: #7b1fa2; }
      .db-comp { fill: #e8f4f8; stroke: #0288d1; }
      .ai-comp { fill: #fff3e0; stroke: #f57c00; }
      .cache-comp { fill: #ffebee; stroke: #d32f2f; }
      .text { font-family: Arial, sans-serif; font-size: 12px; text-anchor: middle; }
      .title { font-weight: bold; font-size: 14px; }
      .flow-title { font-weight: bold; font-size: 16px; fill: #333; }
      .small { font-size: 10px; }
      .flow { fill: none; stroke-width: 2; }
      .flow-1 { stroke: #4caf50; }
      .flow-2 { stroke: #2196f3; }
      .flow-3 { stroke: #ff9800; }
      .flow-4 { stroke: #9c27b0; }
      .flow-5 { stroke: #f44336; }
      .arrow { stroke-width: 2; }
    </style>
    <!-- Маркеры для стрелок -->
    <marker id="arrow-1" markerWidth="10" markerHeight="10" refX="8" refY="3" orient="auto" markerUnits="strokeWidth">
      <path d="M0,0 L0,6 L9,3 z" fill="#4caf50"/>
    </marker>
    <marker id="arrow-2" markerWidth="10" markerHeight="10" refX="8" refY="3" orient="auto" markerUnits="strokeWidth">
      <path d="M0,0 L0,6 L9,3 z" fill="#2196f3"/>
    </marker>
    <marker id="arrow-3" markerWidth="10" markerHeight="10" refX="8" refY="3" orient="auto" markerUnits="strokeWidth">
      <path d="M0,0 L0,6 L9,3 z" fill="#ff9800"/>
    </marker>
    <marker id="arrow-4" markerWidth="10" markerHeight="10" refX="8" refY="3" orient="auto" markerUnits="strokeWidth">
      <path d="M0,0 L0,6 L9,3 z" fill="#9c27b0"/>
    </marker>
    <marker id="arrow-5" markerWidth="10" markerHeight="10" refX="8" refY="3" orient="auto" markerUnits="strokeWidth">
      <path d="M0,0 L0,6 L9,3 z" fill="#f44336"/>
    </marker>
  </defs>

  <!-- Заголовок -->
  <text x="700" y="30" class="flow-title" style="font-size: 20px;">Потоки данных в философском сервисе</text>

  <!-- UI Components -->
  <g id="ui-layer">
    <rect x="50" y="70" width="300" height="200" rx="10" class="container"/>
    <text x="200" y="90" class="title">Frontend UI</text>
    
    <rect x="70" y="110" width="120" height="40" rx="5" class="component ui-comp"/>
    <text x="130" y="135" class="text">Граф-редактор</text>
    
    <rect x="210" y="110" width="120" height="40" rx="5" class="component ui-comp"/>
    <text x="270" y="135" class="text">Панель тезисов</text>
    
    <rect x="70" y="170" width="120" height="40" rx="5" class="component ui-comp"/>
    <text x="130" y="195" class="text">Синтез</text>
    
    <rect x="210" y="170" width="120" height="40" rx="5" class="component ui-comp"/>
    <text x="270" y="195" class="text">Поиск</text>
    
    <rect x="140" y="230" width="120" height="30" rx="5" class="component cache-comp"/>
    <text x="200" y="250" class="text small">Local Storage</text>
  </g>

  <!-- API Layer -->
  <g id="api-layer">
    <rect x="450" y="70" width="500" height="200" rx="10" class="container"/>
    <text x="700" y="90" class="title">API Gateway & Services</text>
    
    <rect x="470" y="110" width="140" height="40" rx="5" class="component api-comp"/>
    <text x="540" y="135" class="text">GraphQL API</text>
    
    <rect x="630" y="110" width="140" height="40" rx="5" class="component api-comp"/>
    <text x="700" y="135" class="text">WebSocket Server</text>
    
    <rect x="790" y="110" width="140" height="40" rx="5" class="component api-comp"/>
    <text x="860" y="135" class="text">REST API</text>
    
    <rect x="470" y="170" width="100" height="40" rx="5" class="component api-comp"/>
    <text x="520" y="190" class="text small">Graph Service</text>
    
    <rect x="590" y="170" width="100" height="40" rx="5" class="component api-comp"/>
    <text x="640" y="190" class="text small">Thesis Service</text>
    
    <rect x="710" y="170" width="100" height="40" rx="5" class="component api-comp"/>
    <text x="760" y="190" class="text small">Synthesis Service</text>
    
    <rect x="830" y="170" width="100" height="40" rx="5" class="component api-comp"/>
    <text x="880" y="190" class="text small">Claude Service</text>
    
    <rect x="650" y="230" width="100" height="30" rx="5" class="component cache-comp"/>
    <text x="700" y="250" class="text small">Redis Cache</text>
  </g>

  <!-- Database Layer -->
  <g id="db-layer">
    <rect x="50" y="320" width="900" height="150" rx="10" class="container"/>
    <text x="500" y="340" class="title">Data Persistence Layer</text>
    
    <rect x="70" y="360" width="140" height="80" rx="5" class="component db-comp"/>
    <text x="140" y="385" class="text">PostgreSQL</text>
    <text x="140" y="405" class="text small">- Концепции</text>
    <text x="140" y="420" class="text small">- Пользователи</text>
    
    <rect x="240" y="360" width="140" height="80" rx="5" class="component db-comp"/>
    <text x="310" y="385" class="text">Neo4j</text>
    <text x="310" y="405" class="text small">- Граф структуры</text>
    <text x="310" y="420" class="text small">- Аналитика</text>
    
    <rect x="410" y="360" width="140" height="80" rx="5" class="component db-comp"/>
    <text x="480" y="385" class="text">Elasticsearch</text>
    <text x="480" y="405" class="text small">- Полнотекстовый</text>
    <text x="480" y="420" class="text small">- поиск</text>
    
    <rect x="580" y="360" width="140" height="80" rx="5" class="component db-comp"/>
    <text x="650" y="385" class="text">Weaviate</text>
    <text x="650" y="405" class="text small">- Векторный</text>
    <text x="650" y="420" class="text small">- поиск</text>
    
    <rect x="750" y="360" width="140" height="80" rx="5" class="component db-comp"/>
    <text x="820" y="385" class="text">MinIO/S3</text>
    <text x="820" y="405" class="text small">- Файлы</text>
    <text x="820" y="420" class="text small">- Бэкапы</text>
  </g>

  <!-- Claude API -->
  <g id="claude">
    <rect x="1050" y="150" width="150" height="80" rx="5" class="component ai-comp"/>
    <text x="1125" y="180" class="text title">Claude API</text>
    <text x="1125" y="200" class="text small">Anthropic</text>
  </g>

  <!-- Flow 1: Создание концепции -->
  <g id="flow-1">
    <text x="100" y="520" class="flow-title">Поток 1: Создание концепции</text>
    
    <!-- Шаги потока -->
    <path d="M 130 150 L 130 300 L 540 300 L 540 210" class="flow flow-1" marker-end="url(#arrow-1)"/>
    <text x="250" y="295" class="text small">1. Создание графа</text>
    
    <path d="M 540 210 L 540 250 L 700 250 L 700 260" class="flow flow-1" marker-end="url(#arrow-1)"/>
    <text x="620" y="265" class="text small">2. Кэш</text>
    
    <path d="M 520 210 L 520 340 L 140 340 L 140 360" class="flow flow-1" marker-end="url(#arrow-1)"/>
    <text x="330" y="335" class="text small">3. PostgreSQL</text>
    
    <path d="M 520 210 L 520 320 L 310 320 L 310 360" class="flow flow-1" marker-end="url(#arrow-1)"/>
    <text x="415" y="315" class="text small">4. Neo4j sync</text>
    
    <!-- Описание -->
    <rect x="50" y="540" width="400" height="60" rx="5" fill="#e8f5e9" stroke="#4caf50"/>
    <text x="250" y="560" class="text">1. Пользователь создает граф в UI</text>
    <text x="250" y="575" class="text">2. GraphQL мутация сохраняет в PostgreSQL</text>
    <text x="250" y="590" class="text">3. CDC синхронизирует с Neo4j для аналитики</text>
  </g>

  <!-- Flow 2: Генерация тезисов -->
  <g id="flow-2">
    <text x="100" y="640" class="flow-title">Поток 2: Генерация тезисов через AI</text>
    
    <!-- Шаги потока -->
    <path d="M 270 150 L 270 280 L 640 280 L 640 210" class="flow flow-2" marker-end="url(#arrow-2)"/>
    <text x="450" y="275" class="text small">1. Запрос тезисов</text>
    
    <path d="M 640 210 L 640 340 L 310 340 L 310 360" class="flow flow-2" marker-end="url(#arrow-2)"/>
    <text x="475" y="355" class="text small">2. Граф из Neo4j</text>
    
    <path d="M 880 210 L 880 190 L 1050 190" class="flow flow-2" marker-end="url(#arrow-2)"/>
    <text x="965" y="185" class="text small">3. Claude API</text>
    
    <path d="M 1050 210 L 880 210 L 880 300 L 640 300 L 640 210" class="flow flow-2" marker-end="url(#arrow-2)"/>
    <text x="760" y="295" class="text small">4. Ответ AI</text>
    
    <path d="M 640 170 L 640 150 L 270 150" class="flow flow-2" marker-end="url(#arrow-2)"/>
    <text x="455" y="145" class="text small">5. Тезисы в UI</text>
    
    <!-- Описание -->
    <rect x="50" y="660" width="400" height="60" rx="5" fill="#e3f2fd" stroke="#2196f3"/>
    <text x="250" y="680" class="text">1. Запрос генерации тезисов</text>
    <text x="250" y="695" class="text">2. Получение графа из Neo4j, обогащение контекста</text>
    <text x="250" y="710" class="text">3. Claude генерирует тезисы, сохранение в БД</text>
  </g>

  <!-- Flow 3: Поиск -->
  <g id="flow-3">
    <text x="100" y="760" class="flow-title">Поток 3: Семантический поиск</text>
    
    <!-- Шаги потока -->
    <path d="M 270 210 L 270 260 L 540 260 L 540 210" class="flow flow-3" marker-end="url(#arrow-3)"/>
    <text x="405" y="255" class="text small">1. Поисковый запрос</text>
    
    <path d="M 540 170 L 540 160 L 860 160 L 860 170" class="flow flow-3" marker-end="url(#arrow-3)"/>
    <text x="700" y="155" class="text small">2. Векторизация</text>
    
    <path d="M 860 210 L 860 380 L 720 380" class="flow flow-3" marker-end="url(#arrow-3)"/>
    <text x="790" y="375" class="text small">3. Weaviate</text>
    
    <path d="M 580 380 L 480 380 L 480 440" class="flow flow-3" marker-end="url(#arrow-3)"/>
    <text x="530" y="410" class="text small">4. Elasticsearch</text>
    
    <!-- Описание -->
    <rect x="50" y="780" width="400" height="60" rx="5" fill="#fff3e0" stroke="#ff9800"/>
    <text x="250" y="800" class="text">1. Пользователь вводит поисковый запрос</text>
    <text x="250" y="815" class="text">2. Параллельный поиск: векторный + полнотекстовый</text>
    <text x="250" y="830" class="text">3. Объединение и ранжирование результатов</text>
  </g>

  <!-- Flow 4: Real-time коллаборация -->
  <g id="flow-4">
    <text x="550" y="520" class="flow-title">Поток 4: Real-time коллаборация</text>
    
    <!-- WebSocket connection -->
    <path d="M 200 150 L 200 100 L 700 100 L 700 110" class="flow flow-4" stroke-dasharray="5,5"/>
    <text x="450" y="95" class="text small">WebSocket</text>
    
    <!-- Broadcast -->
    <path d="M 700 150 L 700 160 L 850 160 L 850 100 L 350 100 L 350 150" class="flow flow-4" marker-end="url(#arrow-4)"/>
    <text x="600" y="135" class="text small">Broadcast</text>
    
    <!-- Описание -->
    <rect x="500" y="540" width="400" height="60" rx="5" fill="#f3e5f5" stroke="#9c27b0"/>
    <text x="700" y="560" class="text">1. WebSocket подключение для редактирования</text>
    <text x="700" y="575" class="text">2. Операции применяются оптимистично в UI</text>
    <text x="700" y="590" class="text">3. Broadcast изменений всем участникам</text>
  </g>

  <!-- Flow 5: Синтез концепций -->
  <g id="flow-5">
    <text x="550" y="640" class="flow-title">Поток 5: Синтез концепций</text>
    
    <!-- Шаги -->
    <path d="M 130 210 L 130 240 L 760 240 L 760 210" class="flow flow-5" marker-end="url(#arrow-5)"/>
    <text x="445" y="235" class="text small">1. Выбор концепций</text>
    
    <path d="M 760 170 L 760 160 L 310 160 L 310 360" class="flow flow-5" marker-end="url(#arrow-5)"/>
    <text x="535" y="155" class="text small">2. Загрузка графов</text>
    
    <path d="M 880 170 L 880 160 L 1050 160" class="flow flow-5" marker-end="url(#arrow-5)"/>
    <text x="965" y="155" class="text small">3. Claude синтез</text>
    
    <path d="M 1125 230 L 1125 400 L 140 400 L 140 440" class="flow flow-5" marker-end="url(#arrow-5)"/>
    <text x="630" y="395" class="text small">4. Сохранение результата</text>
    
    <!-- Описание -->
    <rect x="500" y="660" width="400" height="60" rx="5" fill="#ffebee" stroke="#f44336"/>
    <text x="700" y="680" class="text">1. Выбор 2-5 концепций для синтеза</text>
    <text x="700" y="695" class="text">2. Загрузка полных данных из всех БД</text>
    <text x="700" y="710" class="text">3. Claude создает новую синтезированную концепцию</text>
  </g>

  <!-- Легенда -->
  <g id="legend" transform="translate(1000, 400)">
    <rect x="0" y="0" width="350" height="200" rx="5" fill="white" stroke="#333"/>
    <text x="175" y="20" class="title">Легенда</text>
    
    <line x1="20" y1="40" x2="60" y2="40" class="flow flow-1" marker-end="url(#arrow-1)"/>
    <text x="70" y="45" class="text" style="text-anchor: start">Создание концепции</text>
    
    <line x1="20" y1="60" x2="60" y2="60" class="flow flow-2" marker-end="url(#arrow-2)"/>
    <text x="70" y="65" class="text" style="text-anchor: start">AI генерация</text>
    
    <line x1="20" y1="80" x2="60" y2="80" class="flow flow-3" marker-end="url(#arrow-3)"/>
    <text x="70" y="85" class="text" style="text-anchor: start">Поиск</text>
    
    <line x1="20" y1="100" x2="60" y2="100" class="flow flow-4" marker-end="url(#arrow-4)"/>
    <text x="70" y="105" class="text" style="text-anchor: start">Real-time обновления</text>
    
    <line x1="20" y1="120" x2="60" y2="120" class="flow flow-5" marker-end="url(#arrow-5)"/>
    <text x="70" y="125" class="text" style="text-anchor: start">Синтез концепций</text>
    
    <rect x="20" y="150" width="40" height="20" class="component cache-comp"/>
    <text x="70" y="165" class="text" style="text-anchor: start">Кэш слой</text>
  </g>

  <!-- Метрики производительности -->
  <g id="metrics" transform="translate(50, 880)">
    <rect x="0" y="0" width="900" height="80" rx="5" fill="#f5f5f5" stroke="#666"/>
    <text x="450" y="20" class="title">Типичные метрики производительности</text>
    
    <text x="50" y="40" class="text" style="text-anchor: start">• Создание концепции: 50-100ms</text>
    <text x="50" y="55" class="text" style="text-anchor: start">• Генерация тезисов: 2-5s (Claude API)</text>
    <text x="50" y="70" class="text" style="text-anchor: start">• Поиск: 20-50ms</text>
    
    <text x="300" y="40" class="text" style="text-anchor: start">• Real-time обновление: &lt;10ms</text>
    <text x="300" y="55" class="text" style="text-anchor: start">• Синтез концепций: 5-15s</text>
    <text x="300" y="70" class="text" style="text-anchor: start">• Загрузка графа: 100-200ms</text>
    
    <text x="550" y="40" class="text" style="text-anchor: start">• Cache hit rate: &gt;80%</text>
    <text x="550" y="55" class="text" style="text-anchor: start">• WebSocket latency: &lt;50ms</text>
    <text x="550" y="70" class="text" style="text-anchor: start">• DB connection pool: 20-50</text>
  </g>
</svg>